<svg id="Слой_1" xmlns="http://www.w3.org/2000/svg" viewBox="140 40 720 719.9"><style>.st0{fill:#686161}</style><path class="st0" d="M770.4 40h-540C180 40 140 80 140 130.4v539.2c0 50.4 40 90.4 90.4 90.4h540c49.6 0 89.6-40 89.6-89.6v-540C860 80 820 40 770.4 40zM589.6 400c0 49.6-40 89.6-89.6 89.6s-89.6-40-89.6-89.6c0-16.9 4.6-32.7 12.7-46.1 15.6-26.1 44.2-43.5 76.9-43.5s61.5 17.4 77.2 43.4c8.1 13.5 12.7 29.3 12.4 46.2zM650 145.2h74.8V220H650v-74.8zM770.4 648c0 12-9.6 22.4-22.4 22.4H252.8c-12 0-22.4-9.6-22.4-22.4V444.8h96C346.4 522.4 416 580 500 580s153.6-57.6 173.6-135.2h96.8V648zM577.2 353.8c8.1 13.5 12.7 29.3 12.4 46.2 0 49.6-40 89.6-89.6 89.6s-89.6-40-89.6-89.6c0-16.9 4.6-32.7 12.7-46.1-104.8 1-192.7 4.1-192.7 8.9v82h96C346.4 522.4 416 580 500 580s153.6-57.6 173.6-135.2h96.8v-82c0-5.2-88.1-8.1-193.2-9zm96.4 1.4C653.6 277.6 584 220 500 220s-153.6 57.6-173.6 135.2h-96v89.6h96C346.4 522.4 416 580 500 580s153.6-57.6 173.6-135.2h97v-89.6h-97zM500 489.6c-49.6 0-89.6-40-89.6-89.6 0-16.9 4.6-32.7 12.7-46.1 15.6-26.1 44.2-43.5 76.9-43.5s61.5 17.4 77.2 43.4c8.1 13.5 12.7 29.3 12.4 46.2 0 49.6-40 89.6-89.6 89.6z"/></svg>