<svg id="Слой_1" xmlns="http://www.w3.org/2000/svg" viewBox="0 0 365.3 366.5"><style>.st0{fill:#cfb57b}</style><g id="Figure"><path class="st0" d="M183 68c-41.4 0-77.8 21.9-98.2 54.6h2.9C107.8 91.2 143 70.4 183 70.4s75.1 20.8 95.3 52.2h2.9C260.7 89.8 224.4 68 183 68zm0 231.2c43 0 80.6-23.6 100.5-58.5h-2.9c-19.7 33.5-56.1 56.1-97.7 56.1s-78-22.6-97.7-56.1h-2.9c20.1 34.9 57.7 58.5 100.7 58.5z"/><path class="st0" d="M183 81.7c-33.3 0-63 16.1-81.6 40.9h2.1c18.3-23.8 47.1-39.2 79.5-39.2 32.3 0 61.1 15.4 79.5 39.2h2.1C246 97.8 216.3 81.7 183 81.7zm0 203.8c35 0 66-17.8 84.3-44.8h-2c-18.1 26-48.3 43.1-82.3 43.1-34.1 0-64.2-17.1-82.3-43.1h-2c18.3 27 49.3 44.8 84.3 44.8z"/><path class="st0" d="M183 85.9c-30.8 0-58.3 14.4-76.3 36.7h1c17.8-21.9 44.9-35.9 75.2-35.9 30.3 0 57.4 14 75.2 35.9h1c-17.8-22.4-45.3-36.7-76.1-36.7zm0 195.4c32.6 0 61.5-16 79.2-40.6h-1c-17.6 24.1-46.1 39.8-78.2 39.8s-60.6-15.7-78.2-39.8h-1c17.7 24.6 46.6 40.6 79.2 40.6z"/><path class="st0" d="M271 121.4c.8-.6 1-1.7.4-2.5s-1.7-1-2.4-.4c-.8.6-.9 1.7-.4 2.4.5.9 1.6 1.1 2.4.5zm-4.2-5.6c.7-.6.9-1.7.2-2.5-.6-.7-1.8-.8-2.5-.2-.7.6-.8 1.7-.2 2.4.7.8 1.7.9 2.5.3zm-7-7.8c-.7.7-.7 1.8-.1 2.5.7.7 1.8.7 2.5.1.7-.7.7-1.8.1-2.5-.7-.7-1.8-.7-2.5-.1zm-5.1-4.8c-.6.7-.6 1.8.1 2.5s1.8.6 2.4-.1c.7-.7.6-1.8-.1-2.5-.6-.7-1.7-.6-2.4.1zm-5.3-4.5c-.6.8-.5 1.8.3 2.4s1.8.5 2.4-.2.5-1.9-.3-2.5c-.7-.5-1.8-.4-2.4.3zm-3.2-4.5c-.8-.6-1.9-.4-2.4.4s-.4 1.9.4 2.4 1.9.4 2.4-.4c.6-.7.4-1.8-.4-2.4zm-5.9-3.9c-.8-.5-1.9-.2-2.4.6s-.2 1.9.6 2.4 1.9.3 2.4-.5c.5-.9.2-2-.6-2.5zm-6.2-3.5c-.9-.4-1.9-.1-2.4.7-.4.9-.1 1.9.7 2.3.8.4 1.9.1 2.4-.7.5-.8.2-1.9-.7-2.3zm-6.4-3.1c-.9-.4-1.9 0-2.3.9s0 1.9.9 2.3 1.9 0 2.3-.9 0-1.9-.9-2.3zm-6.5-2.7c-.9-.4-1.9.2-2.3 1-.3.9.2 1.9 1 2.2.9.3 1.9-.1 2.2-1 .5-.9 0-1.9-.9-2.2zm-6.7-2.3c-.9-.3-1.9.3-2.2 1.2-.3.9.3 1.9 1.2 2.1.9.2 1.9-.2 2.2-1.2.2-.8-.3-1.8-1.2-2.1zm-6.9-1.8c-1-.2-1.9.4-2.1 1.3s.4 1.9 1.3 2.1 1.9-.4 2.1-1.3-.3-1.9-1.3-2.1zm-7-1.4c-1-.2-1.9.5-2 1.5s.5 1.8 1.4 2 1.8-.5 2-1.4c.3-1-.4-1.9-1.4-2.1zm-7-.9c-1-.1-1.8.6-1.9 1.6s.6 1.8 1.6 1.9c.9.1 1.8-.6 1.9-1.5.1-1-.6-1.9-1.6-2zm-7.1-.4c-1 0-1.8.7-1.8 1.7s.7 1.8 1.7 1.8c.9 0 1.8-.7 1.8-1.7.1-1-.7-1.8-1.7-1.8zm-7.1 0c-1 0-1.7.8-1.7 1.8s.9 1.7 1.8 1.7 1.7-.8 1.7-1.8-.8-1.7-1.8-1.7zm-7 .4c-1 .1-1.7 1-1.6 1.9.1 1 1 1.6 1.9 1.5s1.6-.9 1.6-1.9c-.1-.8-1-1.6-1.9-1.5zm-7.1.9c-1 .2-1.6 1.1-1.4 2s1.1 1.6 2 1.4 1.6-1 1.4-2c-.1-.9-1-1.6-2-1.4zm-6.9 1.4c-1 .2-1.5 1.2-1.3 2.1s1.2 1.5 2.1 1.3 1.5-1.1 1.3-2.1c-.2-.9-1.2-1.5-2.1-1.3zm-6.9 1.8c-.9.3-1.5 1.3-1.2 2.2.3.9 1.3 1.4 2.2 1.2.9-.3 1.4-1.2 1.2-2.1-.3-1-1.2-1.6-2.2-1.3zm-6.7 2.3c-.9.4-1.4 1.4-1 2.3s1.4 1.3 2.2 1c.9-.4 1.4-1.3 1-2.2-.3-1-1.3-1.5-2.2-1.1zm-6.6 2.7c-.9.4-1.3 1.4-.9 2.3s1.4 1.3 2.3.9 1.3-1.4.9-2.3c-.3-1-1.4-1.3-2.3-.9zm-6.3 3.1c-.9.4-1.2 1.5-.7 2.4.5.8 1.5 1.1 2.4.7.8-.4 1.2-1.5.7-2.3-.5-.9-1.6-1.3-2.4-.8zm-6.2 3.5c-.8.5-1.1 1.6-.6 2.4s1.6 1.1 2.4.5c.8-.5 1.1-1.5.6-2.4-.5-.8-1.6-1.1-2.4-.5zm-5.9 3.9c-.8.6-1 1.7-.4 2.4.6.8 1.7 1 2.4.4.8-.5 1-1.6.4-2.4-.5-.8-1.6-1-2.4-.4zm-5.7 4.3c-.8.6-.9 1.7-.3 2.5.6.7 1.7.8 2.4.2.7-.6.9-1.7.3-2.4s-1.6-.9-2.4-.3zm-5.3 4.6c-.7.7-.7 1.8-.1 2.5.7.7 1.8.7 2.4.1.7-.7.8-1.7.1-2.5-.6-.7-1.7-.8-2.4-.1zm-5.1 5c-.7.7-.7 1.8.1 2.5.7.7 1.8.6 2.5-.1s.6-1.8-.1-2.5c-.7-.6-1.8-.6-2.5.1zm-4.7 5.3c-.7.7-.5 1.9.2 2.5.8.6 1.8.5 2.4-.2s.5-1.8-.2-2.4c-.7-.8-1.8-.7-2.4.1zm-4.4 5.6c-.6.8-.4 1.9.4 2.5s1.9.4 2.4-.4.4-1.8-.4-2.4c-.7-.7-1.8-.6-2.4.3zM93 242.9c-.8.5-1.1 1.6-.5 2.4s1.7 1 2.4.4c.8-.6 1-1.6.4-2.4-.4-.7-1.4-.9-2.3-.4zm4.1 5.7c-.8.6-.9 1.7-.3 2.4.6.8 1.7.9 2.4.3.7-.6.9-1.7.3-2.4s-1.7-.9-2.4-.3zm6.8 5.6c-.6-.7-1.7-.8-2.4-.2-.7.6-.8 1.7-.2 2.5.6.8 1.8.8 2.5.1.7-.6.7-1.7.1-2.4zm4.8 7.4c.7-.7.6-1.8 0-2.4-.7-.6-1.8-.7-2.5 0s-.7 1.8 0 2.5c.7.6 1.8.6 2.5-.1zm5.2 4.7c.6-.7.5-1.8-.2-2.5-.7-.6-1.8-.5-2.5.2-.6.7-.6 1.8.2 2.5.8.6 1.9.5 2.5-.2zm5.5 4.3c.6-.8.4-1.8-.4-2.4-.7-.6-1.8-.4-2.4.3-.6.8-.5 1.9.3 2.5.8.5 1.9.3 2.5-.4zm3.3 4.4c.8.5 1.9.3 2.4-.5s.3-1.9-.5-2.4-1.9-.3-2.4.5-.3 1.9.5 2.4zm6.1 3.7c.9.5 1.9.2 2.4-.6s.2-1.9-.6-2.4-1.9-.2-2.4.6c-.6.9-.3 1.9.6 2.4zm6.2 3.3c.9.5 1.9 0 2.3-.8.4-.9 0-1.9-.8-2.3s-1.9-.1-2.3.8c-.4.8-.1 1.9.8 2.3zm6.5 2.9c.9.4 1.9-.1 2.3-1 .3-.9-.1-1.9-1-2.3-.9-.3-1.9.1-2.3.9-.3 1 .1 2.1 1 2.4zm6.6 2.5c.9.3 1.9-.2 2.2-1.1.3-.9-.2-1.9-1.1-2.2-.9-.3-1.9.2-2.2 1.1-.3.9.2 1.9 1.1 2.2zm6.8 2.1c.9.3 1.9-.3 2.1-1.3.2-.9-.3-1.8-1.2-2.1-.9-.3-1.9.3-2.1 1.2-.3.9.3 1.9 1.2 2.2zm6.9 1.5c1 .2 1.9-.5 2.1-1.4s-.5-1.9-1.4-2-1.8.4-2 1.4c-.2.9.4 1.9 1.3 2zm7 1.2c1 .1 1.8-.6 2-1.5.1-1-.6-1.8-1.5-1.9s-1.8.6-2 1.5c-.1.9.6 1.7 1.5 1.9zm7.1.6c1 .1 1.8-.6 1.9-1.6 0-.9-.7-1.8-1.6-1.9s-1.8.6-1.9 1.6c-.1 1 .6 1.9 1.6 1.9zm7.1.3c1 0 1.8-.8 1.7-1.8 0-1-.8-1.7-1.7-1.7-.9 0-1.7.7-1.7 1.7-.1 1 .7 1.8 1.7 1.8zm7.1-.3c1-.1 1.7-.9 1.6-1.9s-.9-1.7-1.9-1.6c-.9.1-1.7.9-1.6 1.9.1 1 .9 1.7 1.9 1.6zm7-.6c1-.1 1.6-1 1.5-1.9-.1-1-1-1.6-2-1.5-.9.1-1.6 1-1.5 1.9.2.9 1.1 1.6 2 1.5zm7-1.2c1-.2 1.6-1.1 1.4-2.1-.2-.9-1.1-1.5-2-1.4-.9.2-1.5 1.1-1.4 2 .1 1.1 1.1 1.7 2 1.5zm6.9-1.5c.9-.3 1.5-1.2 1.2-2.2-.3-.9-1.2-1.5-2.1-1.2s-1.5 1.2-1.2 2.1c.2.9 1.2 1.5 2.1 1.3zm6.8-2.1c.9-.3 1.4-1.3 1.1-2.2-.3-.9-1.3-1.4-2.2-1.1-.9.3-1.4 1.3-1.1 2.2.3.9 1.3 1.4 2.2 1.1zm6.7-2.5c.9-.3 1.3-1.4 1-2.3-.4-.9-1.4-1.3-2.3-.9-.9.3-1.3 1.4-1 2.3s1.4 1.3 2.3.9zm6.5-2.9c.9-.4 1.2-1.5.8-2.4-.4-.9-1.5-1.2-2.3-.8-.8.4-1.2 1.4-.8 2.3.3 1 1.4 1.4 2.3.9zm6.2-3.3c.9-.5 1.1-1.6.6-2.4s-1.6-1.1-2.4-.6-1.1 1.5-.6 2.4c.5.8 1.6 1.1 2.4.6zm6.1-3.7c.8-.5 1-1.6.5-2.4s-1.6-1-2.4-.5-1 1.6-.5 2.4c.5.8 1.5 1 2.4.5zm5.8-4.1c.8-.6.9-1.7.3-2.5s-1.7-.9-2.4-.3c-.7.6-.9 1.6-.3 2.4.5.8 1.6 1 2.4.4zm5.5-4.5c.7-.6.8-1.7.2-2.5-.6-.7-1.7-.8-2.5-.2-.7.6-.8 1.7-.2 2.5.6.8 1.7.9 2.5.2zm5.2-4.8c.7-.7.7-1.8 0-2.5s-1.8-.6-2.5 0c-.7.7-.7 1.7 0 2.4.7.8 1.8.8 2.5.1zm4.9-5.1c.6-.7.6-1.9-.2-2.5-.7-.6-1.8-.6-2.4.2-.6.7-.6 1.8.1 2.5.7.6 1.8.6 2.5-.2zm4.5-5.4c.6-.8.5-1.9-.3-2.4-.8-.6-1.9-.4-2.4.3-.6.7-.5 1.8.3 2.4.7.6 1.8.4 2.4-.3zm4.2-5.8c.6-.8.3-1.9-.5-2.4s-1.8-.3-2.4.5c-.5.8-.4 1.8.4 2.4.8.5 1.9.3 2.5-.5z" id="Circle"/><path class="st0" d="M314.8 89.9c-.2-.4-.6-.7-1-.8-.4-.1-.9-.1-1.3.2-.3.2-6.8 4-8.6 10.7-1.4 5.4.7 10.7 1.6 12.7-.4.7-2.3 3.4-4 5.7v-.4c-.3-7-2.5-12.5-6.3-15.8-1.4-1.4-3.2-2.5-5.2-3.4-1.5-.7-3-1.3-4.7-1.8-3.5-1.7-7.2-4.4-7.2-7.9 0-3.3 1.6-5.3 4.4-5.3 2.6 0 4.2 2.4 4.2 4.6 0 .9.7 1.6 1.6 1.6.9 0 1.6-.7 1.6-1.6 0-4.3-3.4-7.9-7.5-7.9-4.6 0-7.7 3.4-7.7 8.5 0 2.1.8 3.9 1.9 5.5-4.9-1.4-9.6-3-13.2-6 3.5-3.8 4.5-9.4 2.5-14.1-2.5-5.9-9-9.5-18-9.9-.5-.1-1.1-.1-1.7 0h-.1c-2.5.1-4.5.6-6.6 1.2 2-1.8 4.6-3.7 7.6-5.2 1.5.7 5 2.1 8.9 2.1 1.2 0 2.5-.1 3.8-.5 6.7-1.8 10.5-8.3 10.7-8.6.2-.4.3-.8.2-1.3-.1-.4-.4-.8-.8-1-.3-.2-6.9-3.9-13.6-2.1-5.9 1.6-9.6 6.8-10.5 8.2-2.7 1.3-5.1 2.9-7.1 4.6.6-4.2-1.9-8.3-6.1-9.5-3.7-1.1-7.7 1.1-8.8 4.8-.4 1.5-.3 3.1.5 4.5s2 2.4 3.5 2.8c.9.3 1.8-.3 2-1.1.3-.9-.2-1.8-1.1-2-.7-.2-1.2-.6-1.6-1.2-.3-.6-.4-1.3-.2-2 .6-2 2.7-3.2 4.7-2.6 2.8.8 4.4 3.8 3.6 6.6-.5 1.9-1.8 3.4-3.5 4.3s-3.7 1.2-5.5.6c-1.7-.5-3.8-1.6-6-2.8-3.3-1.8-7-3.8-10.9-4.6 1.9-1.6 3.5-3.5 5.1-5.3 4.1-4.7 8-9.2 16.6-9.3.7 2.5 3.1 4.4 5.8 4.4 3.3 0 6.1-2.7 6.1-6.1s-2.7-6.1-6.1-6.1c-2.8 0-5.1 1.9-5.8 4.4-4.2.1-7.4 1-10.1 2.5.1-5.4 2.8-7.9 5.2-9 .8-.4 1.2-1.3.8-2.2-.4-.8-1.3-1.2-2.2-.8-3 1.4-7.8 5-7.1 14.1-2.2 1.8-4.1 3.9-5.8 5.8-2 2.3-3.9 4.4-6.3 6.1.9-1.8 1.3-4 1-6.1-.6-4.9-5.1-8.3-10-7.7-4 .5-6.9 4.2-6.3 8.2.4 3.3 3.5 5.7 6.8 5.3.9-.1 1.5-.9 1.4-1.8s-.9-1.5-1.8-1.4c-1.5.2-2.9-.9-3.1-2.4-.3-2.2 1.3-4.2 3.5-4.5 3.1-.4 5.9 1.8 6.3 4.9.5 4.2-2.4 8.1-6.6 8.6-.3 0-.7.1-1 .1h-.1c-5.2.1-9.8-3.7-10.4-9-1.1-8.8 7.3-12.9 10.6-14.1.5.1 2.3.4 4.7.4 3.6 0 8.7-.6 13-3.5 7.6-5 9.7-14.9 9.8-15.3.1-.4 0-.9-.2-1.2-.2-.4-.6-.6-1.1-.7-.4-.1-10.3-1.9-17.9 3.1-6.2 4.1-8.7 11.4-9.5 14.2-4.5 1.7-8 4.2-10.1 7.3v-6.4c1.7-1.9 7.5-8.9 7.5-17.5 0-9.9-7.6-17.7-7.9-18-.6-.6-1.7-.6-2.3 0-.3.3-7.9 8.1-7.9 18 0 8.6 5.7 15.6 7.5 17.5v6.9c-2.1-3.3-5.7-6-10.5-7.8-.8-2.8-3.3-10.1-9.5-14.2-7.6-5-17.4-3.2-17.9-3.1-.4.1-.8.3-1.1.7-.2.4-.3.8-.2 1.2.1.4 2.2 10.2 9.8 15.3 4.3 2.9 9.4 3.5 13 3.5 2.4 0 4.2-.3 4.7-.4 3.2 1.2 11.7 5.3 10.5 14.1-.4 2.7-1.7 5.2-3.9 6.8a9.76 9.76 0 0 1-6.5 2.1h-.1c-.3 0-.6 0-1-.1-2-.3-3.8-1.3-5.1-2.9-1.3-1.6-1.8-3.6-1.5-5.7.4-3.1 3.2-5.3 6.3-4.9 2.2.3 3.8 2.3 3.5 4.5-.1.7-.5 1.4-1.1 1.9s-1.3.7-2.1.6c-.9-.1-1.7.5-1.8 1.4-.1.9.5 1.7 1.4 1.8 1.6.2 3.2-.2 4.5-1.2s2.1-2.4 2.3-4c.5-4-2.3-7.7-6.3-8.2-2.4-.3-4.7.3-6.6 1.8s-3.1 3.6-3.4 5.9c-.3 2.1.1 4.2 1 6.1-2.4-1.7-4.3-3.9-6.3-6.1-1.7-2-3.5-4.1-5.8-5.8.8-9.1-4.1-12.7-7.1-14.1-.8-.4-1.8 0-2.2.8-.4.8 0 1.8.8 2.2 2.4 1.1 5.1 3.5 5.2 9-2.7-1.4-5.9-2.4-10.1-2.5-.7-2.5-3.1-4.4-5.8-4.4-3.3 0-6.1 2.7-6.1 6.1s2.7 6.1 6.1 6.1c2.8 0 5.1-1.9 5.8-4.4 8.6.1 12.5 4.6 16.6 9.3 1.6 1.8 3.2 3.7 5.1 5.3-3.9.7-7.7 2.8-10.9 4.6-2.2 1.2-4.3 2.4-6 2.8-1.9.5-3.8.3-5.5-.6s-2.9-2.5-3.5-4.3c-.8-2.8.8-5.8 3.6-6.6 1-.3 2-.2 2.9.3s1.5 1.3 1.8 2.3c.2.7.1 1.4-.2 2-.3.6-.9 1-1.6 1.2-.9.3-1.4 1.2-1.1 2 .3.9 1.2 1.4 2 1.1 1.5-.4 2.8-1.4 3.5-2.8.8-1.4.9-3 .5-4.5-1.1-3.7-5-5.9-8.8-4.8-2.2.6-4 2.1-5.1 4.1-.9 1.7-1.2 3.5-1 5.4-2-1.6-4.4-3.2-7.1-4.6-.9-1.4-4.6-6.7-10.5-8.2-6.7-1.8-13.3 1.9-13.6 2.1-.4.2-.7.6-.8 1-.1.4-.1.9.2 1.3.2.3 4 6.8 10.7 8.6 1.3.3 2.6.5 3.8.5 3.9 0 7.4-1.4 8.9-2.1 3.1 1.5 5.6 3.4 7.6 5.2-2.1-.6-4.1-1.1-6.6-1.2h-1.7c-9.1.4-15.6 3.9-18.1 9.9-2 4.7-.9 10.3 2.5 14.1-3.6 2.9-8.3 4.6-13.2 6 1.2-1.5 1.9-3.4 1.9-5.5 0-5.1-3.1-8.5-7.7-8.5-4.1 0-7.5 3.5-7.5 7.9 0 .9.7 1.6 1.6 1.6s1.6-.7 1.6-1.6c0-2.2 1.6-4.6 4.2-4.6 2.8 0 4.4 1.9 4.4 5.3 0 3.5-3.8 6.2-7.2 7.9-1.7.5-3.2 1.1-4.7 1.8-2 .9-3.7 2-5.2 3.4-3.7 3.3-6 8.8-6.3 15.8v.9c-1.8-2-3.7-4.3-4-5 1-2 3.1-7.4 1.6-12.7-1.8-6.7-8.3-10.5-8.6-10.7-.4-.2-.8-.3-1.3-.2-.4.1-.8.4-1 .8-.2.3-3.9 6.9-2.1 13.6 1.6 5.9 6.8 9.6 8.2 10.5.4.9 5.8 6.6 6.3 7.4h4.5c-.2-.9-.3-1.8-.4-2.8v-1.4c.2-1.7.9-4.2 3.5-4.9.9-.2 1.8-.1 2.6.4s1.3 1.2 1.6 2.1c.3 1.3-.5 2.5-1.7 2.8-.9.2-1.4 1.1-1.2 2 .2.9 1.1 1.4 2 1.2 3-.7 4.9-3.8 4.1-6.8-.9-3.6-4.5-5.8-8.2-5-.5.1-1 .3-1.4.5 1.3-3.8 3.5-6.5 6.5-7.7 3.7-1.5 8.2-.6 11.1 2.3.6.6 1.7.6 2.3 0 .6-.6.6-1.7 0-2.3-1.6-1.6-3.6-2.7-5.7-3.4 1.2-.4 2.5-.7 3.8-1.1 6.9-1.9 14-3.8 18.9-8.8.6-.6.6-1.7 0-2.3-.2-.2-.3-.3-.5-.4-.1-.1-.1-.2-.2-.3-2.9-2.9-3.8-7.3-2.3-11.1 1.2-3 3.9-5.2 7.7-6.5-.2.4-.4.9-.5 1.4-.9 3.6 1.3 7.3 5 8.2.4.1.9.2 1.3.2 2.5 0 4.8-1.7 5.5-4.3.2-.9-.3-1.8-1.2-2-.9-.2-1.8.3-2 1.2-.3 1.3-1.6 2-2.8 1.7-.9-.2-1.7-.8-2.1-1.6-.5-.8-.6-1.7-.4-2.6.6-2.7 3.2-3.4 4.9-3.5h1.4c2.4.1 4.3.6 6.5 1.3 2.9.8 6.1 1.7 11 1.7h.4c1 0 2-.1 2.9-.4 2-.6 4.3-1.8 6.6-3.1 4.6-2.5 9.8-5.3 14.5-4.2 2.4 1 5.1 1.7 8.6 1.7h.2c3 0 5.9-1 8.3-2.8 2.1-1.6 3.6-3.8 4.5-6.2 1.9 5.3 7 9 12.8 9h.2c3.4 0 6.2-.6 8.6-1.7 4.7-1.1 9.9 1.7 14.5 4.2 2.4 1.3 4.6 2.5 6.6 3.1 1 .3 2 .4 2.9.4h.4c4.8 0 8.1-.9 11-1.7 2.2-.6 4.1-1.1 6.5-1.3h1.4c1.7.2 4.2.9 4.9 3.5.5 1.9-.7 3.7-2.5 4.2-.6.1-1.2.1-1.8-.3-.5-.3-.9-.8-1.1-1.4-.2-.9-1.1-1.4-2-1.2-.9.2-1.4 1.1-1.2 2 .4 1.5 1.3 2.7 2.5 3.5.9.5 1.9.8 2.9.8.4 0 .9-.1 1.3-.2 3.6-.9 5.8-4.5 5-8.2-.1-.5-.3-1-.5-1.4 3.8 1.3 6.5 3.5 7.7 6.5 1.5 3.7.6 8.2-2.3 11.1-.1.1-.2.2-.2.3-.2.1-.4.2-.5.4-.6.6-.6 1.7 0 2.3 4.9 4.9 12 6.9 18.9 8.8 1.3.4 2.6.7 3.8 1.1-2.1.6-4.1 1.8-5.7 3.4-.6.6-.6 1.7 0 2.3.6.6 1.7.6 2.3 0 2.9-2.9 7.3-3.8 11.1-2.3 3 1.2 5.2 3.9 6.5 7.7-.4-.2-.9-.4-1.4-.5-1.8-.4-3.6-.1-5.1.8s-2.6 2.4-3.1 4.2c-.4 1.5-.1 3 .7 4.3s2 2.2 3.5 2.5c.9.2 1.8-.3 2-1.2.2-.9-.3-1.8-1.2-2-.6-.1-1.1-.5-1.4-1.1-.3-.5-.4-1.2-.3-1.8.2-.9.8-1.7 1.6-2.1.8-.5 1.7-.6 2.6-.4 2.7.7 3.4 3.2 3.5 4.9v1.4c0 1-.2 1.9-.4 2.8h4.5c.5-.8 5.8-7.8 6.3-8.6 1.4-.9 6.7-4.6 8.2-10.5 2.2-6.7-1.5-13.3-1.7-13.6zm-55.6-35.5c-2.4 0-4.7.3-6.8.8 1.4-1.2 3-2.3 5-2.8 3.6-1 7.3.1 9.4 1-1.4 1.8-4.1 4.6-7.7 5.6-2.6.7-5.2.3-7.3-.3 2.2-.6 4.7-1 7.3-1 .9 0 1.6-.7 1.6-1.6.1-.9-.6-1.7-1.5-1.7zm-22-13.5c1.5 0 2.8 1.2 2.8 2.8s-1.2 2.8-2.8 2.8c-1.5 0-2.8-1.2-2.8-2.8s1.2-2.8 2.8-2.8zm-31-17.1c4.7-3.1 10.7-3.1 13.6-2.8-.9 2.8-3.2 8.3-7.9 11.5-2.8 1.9-6.1 2.6-8.9 2.8 4.1-2.2 6.1-4.3 7.5-5.7l1-1c.7-.6.8-1.6.2-2.3-.6-.7-1.6-.8-2.3-.2-.4.3-.8.7-1.2 1.2-1.5 1.5-3.9 4-9.4 6.4 1.3-3 3.5-7.3 7.4-9.9zm-48.5 3.5c-.4-.5-.8-.8-1.2-1.2-.7-.6-1.7-.5-2.3.2-.6.7-.5 1.7.2 2.3.3.2.6.6 1 1 1.4 1.4 3.5 3.5 7.5 5.7-2.8-.2-6.1-1-8.9-2.8-4.7-3.1-7-8.7-7.9-11.5 2.9-.3 8.9-.3 13.6 2.8 3.9 2.6 6.1 6.9 7.3 9.9-5.4-2.4-7.8-4.9-9.3-6.4zm-28.9 19.1c-1.5 0-2.8-1.2-2.8-2.8s1.2-2.8 2.8-2.8c1.5 0 2.8 1.2 2.8 2.8s-1.2 2.8-2.8 2.8zm-22 12.6c-3.6-1-6.3-3.8-7.7-5.6 2.1-.8 5.8-2 9.4-1 2 .5 3.6 1.6 5 2.8-2.1-.5-4.4-.8-6.8-.8-.9 0-1.6.7-1.6 1.6s.7 1.6 1.6 1.6c2.6 0 5 .4 7.3 1.1-2 .6-4.6 1-7.2.3zm-48.2 50.3c-.6-2.2-1-4.7-1-7.3 0-.9-.7-1.6-1.6-1.6s-1.6.7-1.6 1.6c0 2.4.3 4.7.8 6.8-1.2-1.4-2.3-3-2.8-5-1-3.6.1-7.3 1-9.4 1.8 1.4 4.6 4.1 5.6 7.7.5 2.5.2 5.2-.4 7.2zm124.5-92.2c-.9 0-1.6.7-1.6 1.6v12.1c-1.9-2.9-4.2-7.3-4.2-12.1 0-6.3 3.8-11.9 5.8-14.4 2 2.5 5.8 8 5.8 14.4 0 4.8-2.2 9.2-4.2 12.1V18.7c.1-.9-.6-1.6-1.6-1.6zm130.6 85.5c-.5 2-1.6 3.6-2.8 5 .5-2.1.8-4.4.8-6.8 0-.9-.7-1.6-1.6-1.6s-1.6.7-1.6 1.6c0 2.6-.4 5-1.1 7.3-.6-2.1-.9-4.7-.3-7.3 1-3.6 3.8-6.3 5.6-7.7.9 2.2 2 5.9 1 9.5zm3.2 155.3c-1.6-5.9-6.8-9.6-8.2-10.5-1-2-5.8-5.1-7-6.7h-4.4c.5 2 1 3.7 1.1 5.9v1.4c-.2 1.7-.9 4.2-3.5 4.9-.9.2-1.8.1-2.6-.4s-1.3-1.2-1.6-2.1c-.1-.6-.1-1.2.3-1.8.3-.5.8-.9 1.4-1.1.9-.2 1.4-1.1 1.2-2s-1.1-1.4-2-1.2c-1.5.4-2.7 1.3-3.5 2.5-.8 1.3-1 2.8-.7 4.3.4 1.8 1.5 3.2 3.1 4.2 1.1.6 2.3 1 3.5 1 .5 0 1.1-.1 1.6-.2s1-.3 1.4-.5c-1.3 3.8-3.5 6.5-6.5 7.7-3.7 1.5-8.2.6-11.1-2.3-.6-.6-1.7-.6-2.3 0s-.6 1.7 0 2.3c1.6 1.6 3.6 2.7 5.7 3.4-1.2.4-2.5.7-3.8 1.1-6.9 1.9-14 3.8-18.9 8.8-.6.6-.6 1.7 0 2.3.2.2.3.3.5.4.1.1.1.2.2.3 2.9 2.9 3.8 7.3 2.3 11.1-1.2 3-3.9 5.2-7.7 6.5.2-.4.4-.9.5-1.4.9-3.6-1.3-7.3-5-8.2-1.5-.4-3-.1-4.3.7-1.3.8-2.2 2-2.5 3.5-.2.9.3 1.8 1.2 2 .9.2 1.8-.3 2-1.2.1-.6.5-1.1 1.1-1.4.5-.3 1.2-.4 1.8-.3 1.9.5 3 2.3 2.5 4.2-.7 2.7-3.2 3.4-4.9 3.5h-1.4c-2.4-.1-4.3-.6-6.5-1.3-2.9-.8-6.1-1.7-11-1.7h-.1c-1.1 0-2.2.1-3.2.4-2 .6-4.3 1.8-6.6 3.1-4.6 2.5-9.8 5.3-14.5 4.2-2.3-1-5-1.6-8.3-1.7h-.4c-5.8-.1-11 3.6-12.9 9-1.9-5.4-7.1-9.1-12.9-9h-.4c-3.3 0-6 .7-8.3 1.7-4.7 1.1-9.9-1.7-14.5-4.2-2.4-1.3-4.6-2.5-6.6-3.1-1.1-.3-2.2-.4-3.2-.4h-.1c-4.8 0-8.1.9-11 1.7-2.2.6-4.1 1.1-6.5 1.3H118c-1.7-.2-4.2-.9-4.9-3.5-.2-.9-.1-1.8.4-2.6s1.2-1.3 2.1-1.6c1.3-.3 2.5.5 2.8 1.7.2.9 1.1 1.4 2 1.2.9-.2 1.4-1.1 1.2-2-.7-3-3.8-4.9-6.8-4.1-1.8.4-3.2 1.5-4.2 3.1-.9 1.5-1.2 3.4-.8 5.1.1.5.3 1 .5 1.4-3.8-1.3-6.5-3.5-7.7-6.5-1.5-3.7-.6-8.2 2.3-11.1.1-.1.2-.2.2-.3.2-.1.4-.2.5-.4.6-.6.6-1.7 0-2.3-4.9-4.9-12-6.9-18.9-8.8-1.3-.4-2.6-.7-3.8-1.1 2.1-.6 4.1-1.8 5.7-3.4.6-.6.6-1.7 0-2.3-.6-.6-1.7-.6-2.3 0-2.9 2.9-7.3 3.8-11.1 2.3-3-1.2-5.2-3.9-6.5-7.7.4.2.9.4 1.4.5s1.1.2 1.6.2c3 0 5.8-2.1 6.6-5.1.7-3-1.1-6.1-4.1-6.8-.9-.2-1.8.3-2 1.2-.2.9.3 1.8 1.2 2 1.3.3 2 1.6 1.7 2.8-.2.9-.8 1.7-1.6 2.1-.8.5-1.7.6-2.6.4-2.7-.7-3.4-3.2-3.5-4.9v-1.4c.1-2.1.6-3.9 1.1-5.9h-4.4c-1.2 1.6-6 4.7-7 6.7-1.4.9-6.7 4.6-8.2 10.5-1.8 6.7 1.9 13.3 2.1 13.6.2.4.6.7 1 .8.1 0 .3.1.4.1.3 0 .6-.1.8-.2.3-.2 6.8-4 8.6-10.7 1.4-5.4-.7-10.7-1.6-12.7.7-1.4 2.5-3 4.3-4.5-.1.7-.2 1.5-.2 2.3v1.8c.3 7 2.5 12.5 6.3 15.8 1.4 1.4 3.2 2.5 5.2 3.4 1.5.7 3 1.3 4.7 1.8 3.5 1.7 7.2 4.4 7.2 7.9 0 3.3-1.6 5.3-4.4 5.3-2.6 0-4.2-2.4-4.2-4.6 0-.9-.7-1.6-1.6-1.6s-1.6.7-1.6 1.6c0 4.3 3.4 7.9 7.5 7.9 4.6 0 7.7-3.4 7.7-8.5 0-2.1-.8-3.9-1.9-5.5 4.9 1.4 9.6 3 13.2 6-3.5 3.8-4.5 9.4-2.5 14.1 2.5 6 9 9.5 18.1 9.9.4 0 .7.1 1.1.1h.6c2.5-.1 4.5-.6 6.6-1.2-2 1.8-4.6 3.7-7.6 5.2-2-1-7.4-3.1-12.7-1.6-6.7 1.8-10.5 8.3-10.7 8.6-.2.4-.3.8-.2 1.3.1.4.4.8.8 1 .2.1 4.6 2.6 9.7 2.6 1.2 0 2.5-.1 3.8-.5 5.9-1.6 9.6-6.8 10.5-8.2 2.7-1.3 5.1-2.9 7.1-4.6-.3 1.8.1 3.7 1 5.4 1.1 2 2.9 3.5 5.1 4.1.7.2 1.3.3 2 .3 1.2 0 2.3-.3 3.4-.9 1.7-.9 2.9-2.4 3.4-4.2.9-3.1-.9-6.4-4-7.3-.9-.3-1.8.2-2 1.1-.3.9.2 1.8 1.1 2 1.4.4 2.2 1.8 1.8 3.2-.3 1-.9 1.8-1.8 2.3s-1.9.6-2.9.3c-2.8-.8-4.4-3.8-3.6-6.6.5-1.9 1.8-3.4 3.5-4.3s3.7-1.2 5.5-.6c1.7.5 3.8 1.6 6 2.8 3.3 1.8 7 3.8 10.9 4.6-1.9 1.6-3.5 3.5-5.1 5.3-4.1 4.7-8 9.2-16.6 9.3-.7-2.5-3.1-4.4-5.8-4.4-3.3 0-6.1 2.7-6.1 6.1 0 3.3 2.7 6.1 6.1 6.1 2.8 0 5.1-1.9 5.8-4.4 4.2-.1 7.4-1 10.1-2.5-.1 5.4-2.8 7.9-5.2 9-.8.4-1.2 1.3-.8 2.2.3.6.9 1 1.5 1 .2 0 .5 0 .7-.1 3-1.4 7.8-5 7.1-14.1 2.2-1.8 4.1-3.9 5.8-5.8 2-2.3 3.9-4.4 6.3-6.1-.9 1.9-1.3 4-1 6.1.3 2.4 1.5 4.5 3.4 5.9 1.9 1.5 4.2 2.1 6.6 1.8 1.9-.2 3.7-1.2 4.9-2.8 1.2-1.6 1.7-3.5 1.5-5.4-.4-3.3-3.5-5.7-6.8-5.3-.9.1-1.5.9-1.4 1.8.1.9.9 1.5 1.8 1.4 1.5-.2 2.9.9 3.1 2.4.1 1.1-.2 2.1-.8 3-.7.9-1.6 1.4-2.7 1.5-1.5.2-3-.2-4.2-1.1-1.2-.9-2-2.3-2.1-3.7-.3-2 .3-4.1 1.5-5.7 1.3-1.6 3.1-2.7 5.1-2.9.3 0 .7-.1 1-.1h.1c5.2-.1 9.8 3.7 10.5 9 1.1 8.8-7.3 12.9-10.5 14.1-1.3-.2-10.5-1.6-17.7 3.1-7.6 5-9.7 14.9-9.8 15.3-.1.4 0 .9.2 1.2.2.4.6.6 1.1.7.2 0 2.1.4 4.9.4 3.6 0 8.7-.6 13-3.5 6.2-4.1 8.7-11.4 9.5-14.2 4.5-1.7 8-4.2 10.1-7.3v6.4c-1.7 1.9-7.5 8.9-7.5 17.5 0 9.9 7.6 17.7 7.9 18s.7.5 1.2.5c.4 0 .9-.2 1.2-.5.3-.3 7.9-8.1 7.9-18 0-8.6-5.7-15.6-7.5-17.5v-6.9c2.1 3.3 5.7 6 10.5 7.8.8 2.8 3.3 10.1 9.5 14.2 4.3 2.9 9.4 3.5 13 3.5 2.7 0 4.7-.4 4.9-.4.4-.1.8-.3 1.1-.7.2-.4.3-.8.2-1.2-.1-.4-2.2-10.2-9.8-15.3-7.2-4.8-16.4-3.4-17.7-3.1-3.2-1.2-11.7-5.3-10.5-14.1.7-5.3 5.3-9.1 10.5-9 .3 0 .7 0 1 .1 2 .3 3.8 1.3 5.1 2.9 1.3 1.6 1.8 3.6 1.5 5.7-.2 1.5-1 2.8-2.1 3.7-1.2.9-2.7 1.3-4.2 1.1-1.1-.1-2-.7-2.7-1.5-.7-.9-.9-1.9-.8-3 .2-1.5 1.6-2.6 3.1-2.4.9.1 1.7-.5 1.8-1.4.1-.9-.5-1.7-1.4-1.8-3.3-.4-6.4 1.9-6.8 5.3-.5 4 2.3 7.7 6.3 8.2 2.4.3 4.7-.3 6.6-1.8s3.1-3.6 3.4-5.9c.3-2.1-.1-4.2-1-6.1 2.4 1.7 4.3 3.9 6.3 6.1 1.7 2 3.5 4.1 5.8 5.8-.8 9.1 4.1 12.7 7.1 14.1.2.1.4.1.7.1.6 0 1.2-.4 1.5-1 .4-.8 0-1.8-.8-2.2-2.4-1.1-5.1-3.5-5.2-9 2.7 1.4 5.9 2.4 10.1 2.5.7 2.5 3.1 4.4 5.8 4.4 3.3 0 6.1-2.7 6.1-6.1 0-3.3-2.7-6.1-6.1-6.1-2.8 0-5.1 1.9-5.8 4.4-8.6-.1-12.5-4.6-16.6-9.3-1.6-1.8-3.2-3.7-5.1-5.3 3.9-.7 7.6-2.8 10.9-4.6 2.2-1.2 4.3-2.4 6-2.8 1.9-.5 3.8-.3 5.5.6s2.9 2.5 3.5 4.3c.8 2.8-.8 5.8-3.6 6.6-1 .3-2 .2-2.9-.3s-1.5-1.3-1.8-2.3c-.2-.7-.1-1.4.2-2 .3-.6.9-1 1.6-1.2.9-.3 1.4-1.2 1.1-2-.3-.9-1.2-1.4-2-1.1-1.5.4-2.8 1.4-3.5 2.8-.8 1.4-.9 3-.5 4.5.5 1.8 1.7 3.3 3.4 4.2 1.1.6 2.2.9 3.4.9.7 0 1.3-.1 2-.3 4.2-1.2 6.7-5.3 6.1-9.5 2 1.6 4.4 3.2 7.1 4.6.9 1.4 4.6 6.7 10.5 8.2 1.3.3 2.6.5 3.8.5 5.2 0 9.5-2.4 9.7-2.6.4-.2.7-.6.8-1 .1-.4.1-.9-.2-1.3-.2-.3-4-6.8-10.7-8.6-5.4-1.4-10.7.7-12.7 1.6-3.1-1.5-5.6-3.4-7.6-5.2 2.1.6 4.1 1.1 6.6 1.2h.6c.4 0 .7 0 1.1-.1 9.1-.4 15.6-3.9 18.1-9.9 2-4.7.9-10.3-2.5-14.1 3.6-2.9 8.3-4.6 13.2-6-1.2 1.5-1.9 3.4-1.9 5.5 0 5.1 3.1 8.5 7.7 8.5 4.1 0 7.5-3.5 7.5-7.9 0-.9-.7-1.6-1.6-1.6-.9 0-1.6.7-1.6 1.6 0 2.2-1.6 4.6-4.2 4.6-2.8 0-4.4-1.9-4.4-5.3 0-3.5 3.8-6.2 7.2-7.9 1.7-.5 3.2-1.1 4.7-1.8 2-.9 3.7-2 5.2-3.4 3.7-3.3 6-8.8 6.3-15.8 0-.5.1-1.1 0-1.7v-.1c0-.8-.1-1.6-.2-2.3 1.8 1.5 3.6 3.1 4.3 4.5-1 2-3.1 7.4-1.6 12.7 1.8 6.7 8.3 10.5 8.6 10.7.3.1.5.2.8.2.1 0 .3 0 .4-.1.4-.1.8-.4 1-.8-.4-.4 3.3-7 1.5-13.7zm-258.1 2.7c-1 3.6-3.8 6.3-5.6 7.7-.8-2.1-2-5.8-1-9.4.5-2 1.6-3.6 2.8-5-.5 2.1-.8 4.4-.8 6.8 0 .9.7 1.6 1.6 1.6s1.6-.7 1.6-1.6c0-2.6.4-5 1.1-7.3.7 1.9 1 4.6.3 7.2zm48 51.3c2.4 0 4.7-.3 6.8-.8-1.4 1.2-3 2.3-5 2.8-3.6 1-7.3-.1-9.4-1 1.4-1.8 4.1-4.6 7.7-5.6 2.6-.7 5.2-.3 7.3.3-2.2.6-4.7 1-7.3 1-.9 0-1.6.7-1.6 1.6-.1 1 .6 1.7 1.5 1.7zm22 13.6c-1.5 0-2.8-1.2-2.8-2.8 0-1.5 1.2-2.8 2.8-2.8 1.5 0 2.8 1.2 2.8 2.8 0 1.5-1.2 2.8-2.8 2.8zm30.9 17c-4.7 3.1-10.7 3.1-13.6 2.8.9-2.8 3.2-8.4 7.9-11.5 2.8-1.9 6.1-2.6 8.9-2.8-4.1 2.2-6.1 4.3-7.5 5.7l-1 1c-.7.6-.8 1.6-.2 2.3.3.4.8.6 1.3.6.4 0 .7-.1 1.1-.4.4-.3.8-.7 1.2-1.2 1.5-1.5 3.9-4 9.4-6.4-1.3 3-3.6 7.3-7.5 9.9zm29 5.1c0 6.3-3.8 11.9-5.8 14.4-2-2.5-5.8-8-5.8-14.4 0-4.8 2.2-9.2 4.2-12.1v12.1c0 .9.7 1.6 1.6 1.6s1.6-.7 1.6-1.6v-12.1c1.9 2.9 4.2 7.3 4.2 12.1zm19.6-8.6l1.2 1.2c.3.3.7.4 1.1.4.5 0 .9-.2 1.3-.6.6-.7.5-1.7-.2-2.3-.3-.2-.6-.6-1-1-1.4-1.4-3.5-3.5-7.5-5.7 2.8.2 6.1 1 8.9 2.8 4.7 3.1 7 8.7 7.9 11.5-2.9.3-8.9.3-13.6-2.8-3.9-2.6-6.1-6.9-7.3-9.9 5.3 2.5 7.7 4.9 9.2 6.4zm28.9-19.1c1.5 0 2.8 1.2 2.8 2.8 0 1.5-1.2 2.8-2.8 2.8-1.5 0-2.8-1.2-2.8-2.8 0-1.5 1.2-2.8 2.8-2.8zm22-12.6c3.6 1 6.3 3.8 7.7 5.6-2.1.8-5.8 2-9.4 1-2-.5-3.6-1.6-5-2.8 2.1.5 4.4.8 6.8.8.9 0 1.6-.7 1.6-1.6 0-.9-.7-1.6-1.6-1.6-2.6 0-5-.4-7.3-1.1 1.9-.6 4.6-1 7.2-.3zm53.5-39.1c-1.8-1.4-4.6-4.1-5.6-7.7-.7-2.6-.3-5.2.3-7.3.6 2.2 1 4.7 1 7.3 0 .9.7 1.6 1.6 1.6s1.6-.7 1.6-1.6c0-2.4-.3-4.7-.8-6.8 1.2 1.4 2.3 3 2.8 5 1.1 3.7 0 7.4-.9 9.5z"/></g><path class="st0" d="M48.6 214.1c2 1.3 4.3 2.4 6.8 3.2 2.5.8 5 1.1 7.5 1.1 2.1 0 4.2-.3 6.1-.8s3.5-1.2 4.6-2c1-.8 1.8-1.7 2.4-2.7s1.1-2.4 1.6-4.2l.8.1c-.1 2.5-.6 4.6-1.3 6.4-.7 1.7-1.8 3.4-3.3 5-4.1 4.3-9.9 6.4-17.6 6.4-4.5 0-8.2-.8-11.2-2.4-2.7-1.5-5.6-4.2-8.7-8l-.3-.4c-3 0-6.1-.5-9.3-1.4s-6.2-2.3-9.1-4c-5.6-3.3-9.9-7.7-13-13.1S0 186 0 179.6c0-5.7 1.2-11 3.7-15.9s6-9.2 10.7-12.8c3.4-2.7 7.2-4.8 11.3-6.2 4.1-1.4 8.2-2.2 12.3-2.2 4.8 0 9.5 1 14.1 2.9 3.5 1.5 6.7 3.6 9.7 6.2s5.6 5.5 7.6 8.7c3.7 5.7 5.5 12 5.5 18.7 0 4.3-.8 8.5-2.3 12.5s-3.8 7.7-6.7 11.1c-2.4 2.8-5 5.1-7.7 6.8-2.6 1.9-5.9 3.5-9.6 4.7zm-28.5-8.8c2.5-.7 5-1.1 7.4-1.1 3 0 5.9.6 8.7 1.8 1.2.5 2.4 1.2 3.7 2s3.3 2.2 6.1 4.3l.5.4c2.2-1.2 4.1-2.6 5.7-4.2s3.2-3.7 4.7-6.3c3.8-6.2 5.7-13.5 5.7-21.9 0-5.5-.7-10.6-2.2-15.6-1.5-4.9-3.6-9.1-6.3-12.5-2.2-2.8-4.6-4.8-7.3-6.1-2.7-1.3-5.8-1.9-9.4-1.9-3.6 0-6.8.6-9.4 1.9-2.7 1.3-5.1 3.3-7.3 6.1-2.7 3.4-4.7 7.5-6.2 12.4s-2.2 10.1-2.2 15.6c0 5 .6 9.6 1.8 13.5 1.3 4 3.3 7.8 6 11.6zm14.7 9l-.4-.4c-2.4-2.9-4.4-4.9-6.1-6-1.7-1.2-3.4-1.7-5.1-1.7-.6 0-1.4.1-2.1.4 2.1 2.5 4.2 4.3 6.3 5.5 2.1 1.1 4.6 1.9 7.4 2.2zm79.4-70v1.2c-1.9.1-3.5.4-4.7.8s-2.3 1.2-3.2 2.1c-1.1 1.2-1.9 2.6-2.2 4.3-.4 1.7-.5 4.6-.5 8.8v28.9c0 4.7.2 8.1.5 10.2.4 2.1 1.1 4 2.2 5.8 1.6 2.7 3.7 4.6 6.1 5.8 2.4 1.2 5.4 1.8 9.1 1.8 3.5 0 6.9-.5 10.1-1.6s5.9-2.6 8-4.5c1.3-1.2 2.3-2.5 2.9-3.9s1-3.2 1.3-5.3c.1-1.4.2-4.7.2-9.9v-28.5c0-3.5-.2-6.1-.6-7.8-.4-1.7-1.1-3-2.2-4.1-1-1-2-1.7-3.2-2.1s-2.8-.7-4.7-.8v-1.2h23.5v1.2c-1.9.1-3.5.4-4.7.8s-2.3 1.2-3.2 2.1c-1.1 1.1-1.8 2.5-2.2 4.2-.4 1.7-.6 4.3-.6 7.7v32.2c0 4.8-.4 8.3-1.1 10.5-.7 2.3-2.2 4.3-4.4 6.2-5 4.3-12.1 6.4-21.3 6.4-9.6 0-16.7-2-21.3-6.1-3-2.6-4.7-6-5.3-10.2-.2-1.5-.3-4.2-.3-8.1v-31c0-3.5-.2-6.1-.6-7.8-.4-1.7-1.1-3-2.2-4.1-.9-1-2-1.7-3.2-2.1s-2.8-.7-4.8-.8v-1.2h32.6v.1zm101.8 0l.9 16.9-1.2.1c-.4-2.9-1.2-5.2-2.2-7.1s-2.5-3.5-4.4-5c-1.6-1.2-3.5-2-5.7-2.5s-5.1-.7-8.7-.7H183v30.6h3.1c3.1 0 5.4-.2 7-.6s2.8-1.1 3.8-2.2c1-1 1.7-2.2 2.1-3.5.5-1.3.8-3.3 1.1-5.9l1.2.1-.2 27.4h-1.2c-.3-2.6-.8-4.7-1.4-6.3-.6-1.6-1.4-3-2.5-4.1-1-1.1-2.3-1.9-4-2.4s-3.7-.8-6.2-.8H183V190c0 4.7.1 8.1.4 10.2.2 2.1.7 3.9 1.4 5.3 1.2 2.5 2.9 4.2 5.3 5.4 2.4 1.1 5.5 1.7 9.4 1.7 4.1 0 7.5-.5 10.3-1.6 2.8-1 5-2.6 6.7-4.8 1.2-1.5 2.2-3.1 3-5s1.5-4.3 2.1-7.4l1.2.1-.7 20.3h-60.9V213c1.9-.1 3.5-.4 4.7-.8s2.3-1.2 3.2-2.1c1.1-1.1 1.8-2.5 2.2-4.2.4-1.7.6-4.3.6-7.7v-37.6c0-3.5-.2-6.1-.6-7.7-.4-1.7-1.1-3.1-2.2-4.2-.9-1-2-1.7-3.2-2.1s-2.8-.7-4.8-.8v-1.2H216v-.3zm65.1 0l.9 16.9-1.2.1c-.4-2.9-1.2-5.2-2.2-7.1s-2.5-3.5-4.4-5c-1.6-1.2-3.5-2-5.7-2.5s-5.1-.7-8.7-.7h-11.7v30.6h3.1c3.1 0 5.4-.2 7-.6 1.6-.4 2.8-1.1 3.8-2.2 1-1 1.7-2.2 2.1-3.5.5-1.3.8-3.3 1.1-5.9l1.2.1-.2 27.4H265c-.3-2.6-.8-4.7-1.4-6.3-.6-1.6-1.4-3-2.5-4.1-1-1.1-2.3-1.9-4-2.4-1.7-.5-3.7-.8-6.2-.8H248V190c0 4.7.1 8.1.4 10.2.2 2.1.7 3.9 1.4 5.3 1.2 2.5 2.9 4.2 5.3 5.4 2.4 1.1 5.5 1.7 9.4 1.7 4.1 0 7.5-.5 10.3-1.6 2.8-1 5-2.6 6.7-4.8 1.2-1.5 2.2-3.1 3-5s1.5-4.3 2.1-7.4l1.2.1-.7 20.3h-60.9V213c1.9-.1 3.5-.4 4.7-.8s2.3-1.2 3.2-2.1c1.1-1.1 1.8-2.5 2.2-4.2.4-1.7.6-4.3.6-7.7v-37.6c0-3.5-.2-6.1-.6-7.7-.4-1.7-1.1-3.1-2.2-4.2-.9-1-2-1.7-3.2-2.1s-2.8-.7-4.8-.8v-1.2h55v-.3zm23.1 9.3V198c0 3.5.2 6.1.6 7.8.4 1.7 1.1 3 2.2 4.1 1 1 2 1.7 3.2 2.1s2.8.7 4.7.8v1.2h-23.5v-1.2c1.9-.1 3.5-.4 4.7-.8s2.3-1.2 3.2-2.1c1.1-1.1 1.8-2.5 2.2-4.2s.6-4.3.6-7.7v-37.7c0-3.4-.2-6-.6-7.7-.4-1.7-1.1-3.1-2.2-4.2-.9-1-2-1.7-3.2-2.1s-2.8-.7-4.8-.8v-1.2H311l41.5 52.9v-36.9c0-3.5-.2-6.1-.6-7.8-.4-1.7-1.1-3-2.2-4.1-1-1-2-1.7-3.2-2.1s-2.8-.7-4.7-.8v-1.2h23.5v1.2c-3.4 0-6.1 1-8 3-1.1 1.1-1.8 2.5-2.2 4.2s-.6 4.2-.6 7.7v53.7h-2.3l-48-60.5z" id="Text"/></svg>