<svg id="Layer_1" xmlns="http://www.w3.org/2000/svg" viewBox="-27.7 141 469.3 512"><style>.st0{fill:#d9b677}</style><path class="st0" d="M7.5 319.2c6.3 4.4 25.2 17.6 56.7 39.4 31.6 21.9 55.7 38.7 72.5 50.5 1.8 1.3 5.8 4.1 11.8 8.4 6 4.3 11 7.8 15 10.5s8.8 5.7 14.4 9 10.9 5.8 15.9 7.5c5 1.7 9.6 2.5 13.9 2.5h.5c4.2 0 8.9-.8 13.9-2.5s10.3-4.2 15.9-7.5 10.4-6.3 14.4-9 8.9-6.2 14.9-10.5 9.9-7.2 11.8-8.4c17-11.8 60.2-41.8 129.6-90 13.5-9.4 24.7-20.8 33.8-34 9-13.3 13.6-27.2 13.6-41.8 0-12.2-4.4-22.6-13.2-31.3-8.8-8.7-19.1-13-31.1-13H4.2c-14.2 0-25.2 4.8-32.8 14.4-7.6 9.6-11.5 21.6-11.5 36 0 11.6 5.1 24.2 15.2 37.8 10.2 13.5 21 24.2 32.4 32zm0 0"/><path class="st0" d="M428.3 348.8c-60.5 41-106.5 72.8-137.9 95.5-10.5 7.8-19.1 13.8-25.6 18.1-6.5 4.3-15.3 8.8-26.1 13.3-10.9 4.5-21 6.8-30.5 6.8h-.5c-9.4 0-19.6-2.3-30.5-6.8-10.9-4.5-19.6-8.9-26.2-13.3-6.5-4.3-15.1-10.4-25.6-18.1-24.9-18.3-70.8-50.1-137.6-95.5-10.5-7-19.8-15-28-24.1v219.8c0 12.2 4.3 22.6 13 31.3s19.1 13 31.3 13h407.5c12.2 0 22.6-4.3 31.3-13s13-19.1 13-31.3V324.7c-7.8 8.8-17.1 16.9-27.6 24.1zm0 0"/></svg>