<svg id="Layer_1" xmlns="http://www.w3.org/2000/svg" viewBox="-27.7 141 469.3 512"><style>.st0{fill:#d9b677}</style><path class="st0" d="M439.9 623.3l-54.9-128c-3.4-7.8-11.1-12.9-19.6-12.9h-36.3l13.1-13C378.8 432.9 399 384.5 399 333c0-105.9-86.1-192-192-192S15 227.1 15 333c0 51.5 20.2 99.9 56.8 136.3l13.1 13.1H48.5c-8.5 0-16.3 5.1-19.6 12.9l-54.9 128c-2.8 6.6-2.1 14.2 1.8 20.1 4 6 10.6 9.6 17.8 9.6h426.7c7.2 0 13.9-3.6 17.8-9.6 4-6 4.7-13.5 1.8-20.1zM207 247.7c47.1 0 85.3 38.3 85.3 85.3S254 418.3 207 418.3 121.7 380 121.7 333s38.2-85.3 85.3-85.3zM26 610.3L62.6 525h65.1l71.8 71.6c2.1 2.1 4.8 3.1 7.5 3.1s5.5-1 7.5-3.1l71.8-71.6h65.1l36.6 85.3H26z"/></svg>