<svg id="Layer_1" xmlns="http://www.w3.org/2000/svg" viewBox="-27.7 141 469.3 512"><style>.st0{fill:#d9b677}</style><path class="st0" d="M380.6 415.3c-33.8-7.9-76.9-28.5-92.4-54.2-8.8-14.3-9.7-30.4-2.6-44.1.4-.8 1.1-1.8 1.6-2.8-.4-3 .3-7 2.5-12.2.1-.4.1-.4.3-.7H116.6l.2.4v.1c3.9 6 7.3 11.5 9.1 14.9 7.2 13.9 6.2 30-2.5 44.3-15.6 25.6-58.7 46.3-92.5 54.2l-9.3 156.3c-1 17.1 10.2 31.1 25 31.1h318.3c14.7 0 26-14 24.9-31.1l-9.2-156.2zM153.7 522.9h-29.9c-5.5 0-10-4.5-10-10s4.5-10 10-10h29.9c5.5 0 10 4.5 10 10 0 5.6-4.5 10-10 10zm0-38h-29.9c-5.5 0-10-4.5-10-10s4.5-9.9 10-9.9h29.9c5.5 0 10 4.4 10 9.9 0 5.6-4.5 10-10 10zm0-38h-29.9c-5.5 0-10-4.5-10-10s4.5-10 10-10h29.9c5.5 0 10 4.5 10 10 0 5.6-4.5 10-10 10zm67.1 76h-30c-5.5 0-9.9-4.5-9.9-10s4.5-10 9.9-10h30c5.4 0 10 4.5 10 10-.1 5.6-4.6 10-10 10zm0-38h-30c-5.5 0-9.9-4.5-9.9-10s4.5-9.9 9.9-9.9h30c5.4 0 10 4.4 10 9.9-.1 5.6-4.6 10-10 10zm0-38h-30c-5.5 0-9.9-4.5-9.9-10s4.5-10 9.9-10h30c5.4 0 10 4.5 10 10-.1 5.6-4.6 10-10 10zm66.9 76h-29.9c-5.5 0-9.9-4.5-9.9-10s4.5-10 9.9-10h29.9c5.5 0 10 4.5 10 10 0 5.6-4.5 10-10 10zm0-38h-29.9c-5.5 0-9.9-4.5-9.9-10s4.5-9.9 9.9-9.9h29.9c5.5 0 10 4.4 10 9.9 0 5.6-4.5 10-10 10zm0-38h-29.9c-5.5 0-9.9-4.5-9.9-10s4.5-10 9.9-10h29.9c5.5 0 10 4.5 10 10 0 5.6-4.5 10-10 10zM453.6 325c-.6 3.2-.6 6.5-1.8 9.4-7.2 17.4-20.7 31.8-30.7 47.9-12.8 20.5-121.8-23.7-107.7-51 5.2-10.1 25.9-38.1 27.5-49.3 1.4-10.1-11.9-17.9-24.1-18.9-32.4-2.6-73.7-.2-108 0h-5.7c-34.3-.2-75.7-2.6-108 0-12.2 1-25.5 8.8-24.1 18.9 1.6 11.3 22.2 39.2 27.5 49.3 14.1 27.3-94.9 71.5-107.8 51-9.9-16.1-23.4-30.5-30.7-47.9-1.2-3-1.2-6.2-1.8-9.4-16-71.4 45.6-144.3 138.4-151.8 35.4-2.9 70.9-4.5 106.5-5.2v-.1c1 0 1.9.1 2.8.1 1 0 1.9-.1 2.9-.1v.1c35.5.6 71 2.3 106.5 5.2 92.7 7.4 154.3 80.4 138.3 151.8zm0 0"/></svg>