<svg id="Слой_1" xmlns="http://www.w3.org/2000/svg" viewBox="140 40 720 719.9"><style>.st0{fill:#686161}</style><path class="st0" d="M834 227.4c-8.1-36.9-38.7-64.8-75.6-68.4-86.4-9.9-173.7-9.9-261-9.9s-174.6 0-261 9.9c-36.9 4.5-66.6 31.5-75.6 68.4-11.7 53.1-11.7 110.7-11.7 164.7s0 112.5 12.6 164.7c8.1 36.9 38.7 64.8 75.6 68.4 86.4 9.9 173.7 9.9 261 9.9 87.3 0 174.6 0 261-9.9 36.9-4.5 66.6-31.5 75.6-68.4 12.6-53.1 12.6-110.7 12.6-164.7-1.8-54-.9-111.6-13.5-164.7zM407.4 500.1V269.7c73.8 38.7 147.6 76.5 221.4 116.1-73.8 37.8-147.6 76.5-221.4 114.3z"/></svg>